<?xml version="1.0" encoding="utf-8"?>
<!-- Generator: Adobe Illustrator 19.2.0, SVG Export Plug-In . SVG Version: 6.00 Build 0)  -->
<!DOCTYPE svg PUBLIC "-//W3C//DTD SVG 1.0//EN" "http://www.w3.org/TR/2001/REC-SVG-20010904/DTD/svg10.dtd">
<svg version="1.0" xmlns="http://www.w3.org/2000/svg" xmlns:xlink="http://www.w3.org/1999/xlink" x="0px" y="0px"
	 width="100px" height="100px" viewBox="0 0 250 250" enable-background="new 0 0 250 250" xml:space="preserve">
<g id="boundingbox">
	<rect fill="none" width="250" height="250"/>
</g>
<g id="Layer_5">
	<g>
		<g>
			<ellipse fill="#666766" cx="119.7" cy="178.7" rx="34.7" ry="14.4"/>
			<ellipse fill="#999999" cx="119.7" cy="176.9" rx="34.7" ry="14.4"/>
		</g>
		<g>
			<ellipse fill="#666766" cx="119.8" cy="174.3" rx="34.7" ry="14.4"/>
			<ellipse fill="#999999" cx="119.8" cy="172.5" rx="34.7" ry="14.4"/>
		</g>
		<g>
			<ellipse fill="#666766" cx="119.8" cy="169.8" rx="34.7" ry="14.4"/>
			<ellipse fill="#999999" cx="119.8" cy="168" rx="34.7" ry="14.4"/>
		</g>
		<g>
			<ellipse fill="#666766" cx="119.9" cy="165.4" rx="34.7" ry="14.4"/>
			<ellipse fill="#999999" cx="119.9" cy="163.6" rx="34.7" ry="14.4"/>
		</g>
		<g>
			<ellipse fill="#666766" cx="120" cy="160.9" rx="34.7" ry="14.4"/>
			<ellipse fill="#999999" cx="120" cy="159.1" rx="34.7" ry="14.4"/>
		</g>
		<g>
			<ellipse fill="#666766" cx="120.1" cy="156.4" rx="34.7" ry="14.4"/>
			<ellipse fill="#999999" cx="120.1" cy="154.7" rx="34.7" ry="14.4"/>
		</g>
		<ellipse fill="#CCCCCC" cx="120" cy="151.1" rx="34.7" ry="14.4"/>
	</g>
	<g>
		<g>
			<ellipse fill="#666766" cx="225.1" cy="198.7" rx="24.7" ry="10.2"/>
			<ellipse fill="#999999" cx="225.1" cy="197.5" rx="24.7" ry="10.2"/>
		</g>
		<g>
			<ellipse fill="#666766" cx="225.2" cy="195.3" rx="24.7" ry="10.2"/>
			<ellipse fill="#999999" cx="225.2" cy="194.1" rx="24.7" ry="10.2"/>
		</g>
		<g>
			<ellipse fill="#666766" cx="225.2" cy="191.9" rx="24.7" ry="10.2"/>
			<ellipse fill="#999999" cx="225.2" cy="190.7" rx="24.7" ry="10.2"/>
		</g>
		<g>
			<ellipse fill="#666766" cx="225.3" cy="188.5" rx="24.7" ry="10.2"/>
			<ellipse fill="#999999" cx="225.3" cy="187.3" rx="24.7" ry="10.2"/>
		</g>
		<ellipse fill="#CCCCCC" cx="225.3" cy="184.5" rx="24.7" ry="10.2"/>
	</g>
	<g>
		<g>
			<ellipse fill="#666766" cx="24.7" cy="189.4" rx="24.7" ry="10.2"/>
			<ellipse fill="#999999" cx="24.7" cy="188.2" rx="24.7" ry="10.2"/>
		</g>
		<g>
			<ellipse fill="#666766" cx="24.8" cy="186" rx="24.7" ry="10.2"/>
			<ellipse fill="#999999" cx="24.8" cy="184.8" rx="24.7" ry="10.2"/>
		</g>
		<g>
			<ellipse fill="#666766" cx="24.8" cy="182.6" rx="24.7" ry="10.2"/>
			<ellipse fill="#999999" cx="24.8" cy="181.4" rx="24.7" ry="10.2"/>
		</g>
		<g>
			<ellipse fill="#666766" cx="24.9" cy="179.2" rx="24.7" ry="10.2"/>
			<ellipse fill="#999999" cx="24.9" cy="178" rx="24.7" ry="10.2"/>
		</g>
		<ellipse fill="#CCCCCC" cx="24.8" cy="175.2" rx="24.7" ry="10.2"/>
	</g>
	<g>
		<g>
			<ellipse fill="#666766" cx="75.6" cy="204.2" rx="34.7" ry="14.4"/>
			<ellipse fill="#999999" cx="75.6" cy="202.4" rx="34.7" ry="14.4"/>
		</g>
		<g>
			<ellipse fill="#666766" cx="75.7" cy="199.7" rx="34.7" ry="14.4"/>
			<ellipse fill="#999999" cx="75.7" cy="197.9" rx="34.7" ry="14.4"/>
		</g>
		<g>
			<ellipse fill="#666766" cx="75.7" cy="195.2" rx="34.7" ry="14.4"/>
			<ellipse fill="#999999" cx="75.7" cy="193.5" rx="34.7" ry="14.4"/>
		</g>
		<g>
			<ellipse fill="#666766" cx="75.8" cy="190.8" rx="34.7" ry="14.4"/>
			<ellipse fill="#999999" cx="75.8" cy="189" rx="34.7" ry="14.4"/>
		</g>
		<g>
			<ellipse fill="#666766" cx="75.9" cy="186.3" rx="34.7" ry="14.4"/>
			<ellipse fill="#999999" cx="75.9" cy="184.5" rx="34.7" ry="14.4"/>
		</g>
		<g>
			<ellipse fill="#666766" cx="76" cy="181.9" rx="34.7" ry="14.4"/>
			<ellipse fill="#999999" cx="76" cy="180.1" rx="34.7" ry="14.4"/>
		</g>
		<ellipse fill="#CCCCCC" cx="75.9" cy="176.5" rx="34.7" ry="14.4"/>
	</g>
	<g>
		<g>
			<ellipse fill="#666766" cx="173.1" cy="202.8" rx="34.7" ry="14.4"/>
			<ellipse fill="#999999" cx="173.1" cy="201.1" rx="34.7" ry="14.4"/>
		</g>
		<g>
			<ellipse fill="#666766" cx="173.2" cy="198.4" rx="34.7" ry="14.4"/>
			<ellipse fill="#999999" cx="173.2" cy="196.6" rx="34.7" ry="14.4"/>
		</g>
		<g>
			<ellipse fill="#666766" cx="173.2" cy="193.9" rx="34.7" ry="14.4"/>
			<ellipse fill="#999999" cx="173.2" cy="192.1" rx="34.7" ry="14.4"/>
		</g>
		<g>
			<ellipse fill="#666766" cx="173.3" cy="189.5" rx="34.7" ry="14.4"/>
			<ellipse fill="#999999" cx="173.3" cy="187.7" rx="34.7" ry="14.4"/>
		</g>
		<g>
			<ellipse fill="#666766" cx="173.3" cy="185" rx="34.7" ry="14.4"/>
			<ellipse fill="#999999" cx="173.3" cy="183.2" rx="34.7" ry="14.4"/>
		</g>
		<g>
			<ellipse fill="#666766" cx="173.5" cy="180.6" rx="34.7" ry="14.4"/>
			<ellipse fill="#999999" cx="173.5" cy="178.8" rx="34.7" ry="14.4"/>
		</g>
		<ellipse fill="#CCCCCC" cx="173.4" cy="175.2" rx="34.7" ry="14.4"/>
	</g>
	<g>
		<g>
			<ellipse fill="#666766" cx="126.5" cy="225.2" rx="34.7" ry="14.4"/>
			<ellipse fill="#999999" cx="126.5" cy="223.4" rx="34.7" ry="14.4"/>
		</g>
		<g>
			<ellipse fill="#666766" cx="126.6" cy="220.7" rx="34.7" ry="14.4"/>
			<ellipse fill="#999999" cx="126.6" cy="218.9" rx="34.7" ry="14.4"/>
		</g>
		<g>
			<ellipse fill="#666766" cx="126.6" cy="216.3" rx="34.7" ry="14.4"/>
			<ellipse fill="#999999" cx="126.6" cy="214.5" rx="34.7" ry="14.4"/>
		</g>
		<g>
			<ellipse fill="#666766" cx="126.7" cy="211.8" rx="34.7" ry="14.4"/>
			<ellipse fill="#999999" cx="126.7" cy="210" rx="34.7" ry="14.4"/>
		</g>
		<g>
			<ellipse fill="#666766" cx="126.8" cy="207.4" rx="34.7" ry="14.4"/>
			<ellipse fill="#999999" cx="126.8" cy="205.6" rx="34.7" ry="14.4"/>
		</g>
		<g>
			<ellipse fill="#666766" cx="126.9" cy="202.9" rx="34.7" ry="14.4"/>
			<ellipse fill="#999999" cx="126.9" cy="201.1" rx="34.7" ry="14.4"/>
		</g>
		<ellipse fill="#CCCCCC" cx="126.8" cy="197.5" rx="34.7" ry="14.4"/>
	</g>
	<g>
		<g>
			<ellipse fill="#666766" cx="33.3" cy="232.3" rx="24.7" ry="10.2"/>
			<ellipse fill="#999999" cx="33.3" cy="231" rx="24.7" ry="10.2"/>
		</g>
		<ellipse fill="#CCCCCC" cx="33.3" cy="228.2" rx="24.7" ry="10.2"/>
	</g>
	<g>
		<g>
			<path fill="#63893B" d="M124.9,187.8c0,0-0.2-2.9-0.6-7.9c-0.2-2.5-0.4-5.6-0.6-9.1c-0.2-3.5-0.5-7.5-0.7-11.9
				c-0.4-8.7-0.7-18.9-0.4-29.8c0.1-5.5,0.4-11.1,1-16.8c0.1-1.4,0.3-2.9,0.4-4.3c0.2-1.4,0.3-2.9,0.5-4.3c0.4-2.9,0.9-5.8,1.5-8.7
				c1.3-5.8,3.3-11.5,6.5-16.5c3.2-5,7.6-8.9,11.8-12.3c4.3-3.4,8.4-6.5,12.2-9.8c3.8-3.2,7.2-6.4,10.3-9.4c6.2-6,11-11.4,14.3-15.3
				c1.6-1.9,2.9-3.5,3.7-4.5c0.8-1.1,1.3-1.6,1.3-1.6s-0.4,0.6-1.2,1.7c-0.8,1.1-2,2.7-3.5,4.7c-3.1,4-7.7,9.6-13.6,15.9
				c-3,3.2-6.3,6.5-10,9.9c-3.6,3.4-7.7,6.8-11.8,10.3c-4,3.6-8,7.4-10.7,12.1c-2.8,4.7-4.4,10.1-5.4,15.6c-0.5,2.8-0.8,5.6-1.1,8.4
				c-0.1,1.4-0.2,2.8-0.3,4.3c-0.1,1.4-0.2,2.8-0.3,4.2c-0.3,5.6-0.4,11.2-0.3,16.5c0.2,10.7,0.9,20.7,1.7,29.3
				c0.4,4.3,0.8,8.2,1.2,11.7c0.4,3.5,0.7,6.5,1,9c0.6,5,0.9,7.9,0.9,7.9L124.9,187.8z"/>
		</g>
		<g>
			<polygon fill="#63893B" points="83.5,51.1 86.6,54.3 89.7,57.5 92.8,60.8 95.8,64.2 98.7,67.6 101.6,71 104.5,74.5 107.3,78 
				110,81.6 112.7,85.2 115.4,88.8 118,92.5 120.5,96.2 123.1,100 125.5,103.8 127.9,107.6 123.1,109.8 122.3,107.8 127.4,105.9 
				128.1,108 123.3,110.2 121.2,106.3 119.1,102.4 116.9,98.5 114.6,94.7 112.3,90.8 110,87.1 107.6,83.3 105.1,79.6 102.6,75.9 
				100,72.2 97.4,68.6 94.7,65 92,61.5 89.2,58 86.4,54.5 			"/>
		</g>
		<g>
			<path fill="#81AF4D" d="M152.1,94.9c-18,10.1-24.9,28.4-26.2,32.3c22.1-16.8,45.1-34.3,71.1-45.4C190.2,82.6,169,85.4,152.1,94.9
				z"/>
			<path fill="#63893B" d="M125.9,127.2c-0.2,0.5-0.2,0.8-0.2,0.8s20.8-2.5,41.9-12.6c21.1-10,31.6-33.8,31.6-33.8s-0.8,0.1-2.2,0.2
				C171.1,92.9,148,110.4,125.9,127.2z"/>
		</g>
		<g>
			<g>
				<path fill="#81AF4D" d="M183,23.4c-11.2,7.8-14.5,20.2-15.1,22.9c13.4-12.5,27.4-25.5,43.6-34.4C207.2,12.8,193.4,16.1,183,23.4
					z"/>
				<path fill="#63893B" d="M167.9,46.3c-0.1,0.3-0.1,0.5-0.1,0.5s13.5-3,26.7-11c13.2-8,18.5-24.2,18.5-24.2s-0.5,0.1-1.4,0.3
					C195.3,20.8,181.3,33.8,167.9,46.3z"/>
			</g>
			<g>
				<path fill="#81AF4D" d="M162.8,21.2c6.1,8.9,5.8,21.7,5.6,24.4c-6.7-13.8-13.6-28.1-23.1-38.6C148.2,8.3,157.1,12.9,162.8,21.2z
					"/>
				<path fill="#63893B" d="M168.4,45.6c0,0.3,0,0.5,0,0.5s-8.8-4.3-16.3-13.5c-7.5-9.2-7.7-26-7.7-26s0.3,0.1,0.9,0.4
					C154.8,17.5,161.7,31.9,168.4,45.6z"/>
			</g>
		</g>
		<g>
			<g>
				<path fill="#81AF4D" d="M83.4,47.7c12.3,7.7,17,21.5,17.9,24.6C86.3,59.4,70.5,46.1,52.8,37.7C57.4,38.3,71.9,40.4,83.4,47.7z"
					/>
				<path fill="#63893B" d="M101.4,72.2c0.1,0.4,0.2,0.6,0.2,0.6s-14.2-1.9-28.6-9.6c-14.4-7.6-21.6-25.6-21.6-25.6s0.5,0,1.5,0.2
					C70.5,46.1,86.3,59.4,101.4,72.2z"/>
			</g>
			<g>
				<path fill="#81AF4D" d="M104.1,42.8c-5.4,10.9-3.7,25.5-3.3,28.6c5.5-16.5,11.2-33.8,19.9-46.9
					C117.8,26.4,109.1,32.6,104.1,42.8z"/>
				<path fill="#63893B" d="M100.8,71.5c0.1,0.4,0.1,0.6,0.1,0.6s8.6-5.9,15.4-17.4c6.8-11.4,5.3-30.7,5.3-30.7s-0.3,0.2-0.9,0.6
					C112,37.7,106.3,54.9,100.8,71.5z"/>
			</g>
		</g>
	</g>
	<g>
		<g>
			<ellipse fill="#666766" cx="167.9" cy="240.3" rx="13" ry="5.4"/>
			<ellipse fill="#999999" cx="167.9" cy="239.6" rx="13" ry="5.4"/>
		</g>
		<ellipse fill="#CCCCCC" cx="167.9" cy="238.2" rx="13" ry="5.4"/>
	</g>
	<g>
		<g>
			<ellipse fill="#666766" cx="166.2" cy="235.4" rx="13" ry="5.4"/>
			<ellipse fill="#999999" cx="166.2" cy="234.7" rx="13" ry="5.4"/>
		</g>
		<ellipse fill="#CCCCCC" cx="166.1" cy="233.3" rx="13" ry="5.4"/>
	</g>
	<g>
		<g>
			<ellipse fill="#666766" cx="199.1" cy="225.2" rx="24.7" ry="10.2"/>
			<ellipse fill="#999999" cx="199.1" cy="224" rx="24.7" ry="10.2"/>
		</g>
		<g>
			<ellipse fill="#666766" cx="199.2" cy="221.8" rx="24.7" ry="10.2"/>
			<ellipse fill="#999999" cx="199.2" cy="220.6" rx="24.7" ry="10.2"/>
		</g>
		<g>
			<ellipse fill="#666766" cx="199.2" cy="218.4" rx="24.7" ry="10.2"/>
			<ellipse fill="#999999" cx="199.2" cy="217.2" rx="24.7" ry="10.2"/>
		</g>
		<g>
			<g>
				<ellipse fill="#666766" cx="199.3" cy="215" rx="24.7" ry="10.2"/>
				<ellipse fill="#999999" cx="199.3" cy="213.8" rx="24.7" ry="10.2"/>
			</g>
			<ellipse fill="#CCCCCC" cx="199.3" cy="211" rx="24.7" ry="10.2"/>
		</g>
		<g>
			<g>
				<ellipse fill="#666766" cx="194.9" cy="210" rx="24.7" ry="10.2"/>
				<ellipse fill="#999999" cx="194.9" cy="208.7" rx="24.7" ry="10.2"/>
			</g>
			<ellipse fill="#CCCCCC" cx="194.8" cy="205.9" rx="24.7" ry="10.2"/>
		</g>
	</g>
	<g>
		<g>
			<ellipse fill="#666766" cx="72.9" cy="171.4" rx="34.7" ry="14.4"/>
			<ellipse fill="#999999" cx="72.9" cy="169.6" rx="34.7" ry="14.4"/>
		</g>
		<ellipse fill="#CCCCCC" cx="72.8" cy="166" rx="34.7" ry="14.4"/>
	</g>
	<g>
		<g>
			<ellipse fill="#666766" cx="133.6" cy="194.3" rx="24.7" ry="10.2"/>
			<ellipse fill="#999999" cx="133.6" cy="193.1" rx="24.7" ry="10.2"/>
		</g>
		<ellipse fill="#CCCCCC" cx="133.5" cy="190.3" rx="24.7" ry="10.2"/>
	</g>
</g>
</svg>
