<svg xmlns="http://www.w3.org/2000/svg" width="100px" height="100px" viewBox="0 0 135.21 148.68">
    <defs>
        <style>
            .a{fill:#efefef;}.b{fill:#9ae7ef;}.c{fill:#82defa;}.d{fill:#fff;}.e{fill:#545454;}.f{fill:#64b5f6;}.g{fill:#69a9e0;}.h{fill:#38cd9b;}.i{fill:#ffe140;}.j{fill:#ffb74d;}.k{fill:#ff6161;}.l{fill:#18b57c;}
        </style>
    </defs>
    <ellipse cx="65.55" cy="142.87" class="a" rx="65.55" ry="5.81"/>
    <rect width="136.86" height="110.48" x="-3.52" y="18.95" class="b" rx="14.81" ry="14.81" transform="rotate(90 64.915 74.185)"/>
    <path d="M9.67 127.81a14.82 14.82 0 0 0 14.81 14.81h80.87a14.82 14.82 0 0 0 14.81-14.81V20.56z" class="c"/>
    <rect width="96.61" height="122.99" x="16.61" y="12.69" class="d" rx="7.87" ry="7.87"/>
    <rect width="43.38" height="11.21" x="43.23" y="8.22" class="e" rx="5.6" ry="5.6"/>
    <path d="M61.37 0h8.09a5.11 5.11 0 0 1 5.11 5.11V9h-18.3V5.11A5.11 5.11 0 0 1 61.37 0z" class="e"/>
    <circle cx="65.47" cy="4.77" r="2.17" class="d"/>
    <path d="M34 37.61v-9h3.26a6.34 6.34 0 0 1 1.35.14 3.09 3.09 0 0 1 1.1.46 2.32 2.32 0 0 1 .75.87 2.92 2.92 0 0 1 .28 1.35 2.88 2.88 0 0 1-.47 1.57 2.67 2.67 0 0 1-1.17 1l2.05 3.62h-2.29l-1.73-3.26H36v3.26zm2-4.88h1.05a1.92 1.92 0 0 0 1.23-.34 1.21 1.21 0 0 0 .42-1 1 1 0 0 0-.42-.93 2.34 2.34 0 0 0-1.23-.26H36zm6.47 4.88v-9h5.66v1.72h-3.62v1.77h3.08v1.7h-3.08v2.08h3.76v1.72zm11.6.16a5 5 0 0 1-1.74-.3 3.92 3.92 0 0 1-1.41-.88 4.06 4.06 0 0 1-.92-1.45 6 6 0 0 1 0-4 4.36 4.36 0 0 1 1-1.49 4.07 4.07 0 0 1 1.41-.93 4.6 4.6 0 0 1 1.71-.32 3.69 3.69 0 0 1 1.69.36 4.34 4.34 0 0 1 1.15.82l-1.07 1.3a3.88 3.88 0 0 0-.74-.51 2 2 0 0 0-1-.21 2.28 2.28 0 0 0-1 .2 2.18 2.18 0 0 0-.76.58 2.65 2.65 0 0 0-.49.92 4 4 0 0 0-.17 1.22 3.34 3.34 0 0 0 .63 2.17 2.32 2.32 0 0 0 1.91.77 2.09 2.09 0 0 0 .54-.07 1.1 1.1 0 0 0 .43-.21v-1.56h-1.5v-1.67h3.3v4.16a3.89 3.89 0 0 1-1.25.78 4.54 4.54 0 0 1-1.72.32zm4.85-.16v-9h2v9zm6.94.16a5.07 5.07 0 0 1-1.77-.33 4.63 4.63 0 0 1-1.58-1l1.17-1.4a4.39 4.39 0 0 0 1.08.68 2.82 2.82 0 0 0 1.16.26 1.57 1.57 0 0 0 1-.24.76.76 0 0 0 .31-.64.69.69 0 0 0-.09-.36.84.84 0 0 0-.26-.27 2.41 2.41 0 0 0-.42-.22l-.53-.23-1.18-.5a3.48 3.48 0 0 1-.67-.36 2.93 2.93 0 0 1-.58-.52A2.34 2.34 0 0 1 63 32a2.47 2.47 0 0 1-.15-.89 2.39 2.39 0 0 1 .24-1 2.6 2.6 0 0 1 .67-.86 3.19 3.19 0 0 1 1-.58 3.88 3.88 0 0 1 1.3-.21 4.21 4.21 0 0 1 1.56.3 4 4 0 0 1 1.35.89l-1 1.29a4 4 0 0 0-.89-.53 2.51 2.51 0 0 0-1-.19 1.46 1.46 0 0 0-.84.21.69.69 0 0 0-.31.6.59.59 0 0 0 .1.35 1 1 0 0 0 .29.26 2.89 2.89 0 0 0 .44.22l.54.23 1.17.47a3.18 3.18 0 0 1 1.31.92 2.35 2.35 0 0 1 .49 1.52 2.56 2.56 0 0 1-.89 2 3.32 3.32 0 0 1-1.08.61 4.27 4.27 0 0 1-1.44.16zm6.44-.16v-7.33h-2.49v-1.72h7v1.72h-2.46v7.33zm5.95 0v-9h5.66v1.72h-3.62v1.77h3.08v1.7h-3.08v2.08H84v1.72zm7.6 0v-9h3.26a6.34 6.34 0 0 1 1.35.14 3.09 3.09 0 0 1 1.1.46 2.32 2.32 0 0 1 .75.87 2.92 2.92 0 0 1 .28 1.35 2.88 2.88 0 0 1-.43 1.57A2.67 2.67 0 0 1 91 34l2 3.61h-2.25L89 34.35h-1.11v3.26zm2-4.88h1.05a1.92 1.92 0 0 0 1.23-.34 1.21 1.21 0 0 0 .42-1 1 1 0 0 0-.42-.93 2.34 2.34 0 0 0-1.23-.26h-1.01z" class="f"/>
    <rect width="40.86" height="1.86" x="32.9" y="47.09" class="g" rx=".93" ry=".93"/>
    <rect width="33.93" height="1.86" x="32.9" y="52.25" class="g" rx=".93" ry=".93"/>
    <path d="M93.44 44.53a1.09 1.09 0 0 0-1.53.17l-4.25 6.39-1.85-1.85a.92.92 0 1 0-1.29 1.29l2.79 2.8a1 1 0 0 0 1.16.16 1.08 1.08 0 0 0 .41-.31l4.73-7.12a1.09 1.09 0 0 0-.17-1.53z" class="h"/>
    <rect width="40.86" height="1.86" x="32.9" y="61.14" class="g" rx=".93" ry=".93"/>
    <rect width="33.93" height="1.86" x="32.9" y="66.29" class="g" rx=".93" ry=".93"/>
    <path d="M93.44 58.58a1.09 1.09 0 0 0-1.53.17l-4.25 6.39-1.85-1.85a.92.92 0 1 0-1.29 1.29l2.79 2.8a1 1 0 0 0 1.16.16 1.08 1.08 0 0 0 .41-.31l4.73-7.12a1.09 1.09 0 0 0-.17-1.53z" class="h"/>
    <rect width="40.86" height="1.86" x="32.9" y="75.18" class="g" rx=".93" ry=".93"/>
    <rect width="33.93" height="1.86" x="32.9" y="80.33" class="g" rx=".93" ry=".93"/>
    <path d="M93.44 72.62a1.09 1.09 0 0 0-1.53.17l-4.25 6.39-1.85-1.85a.92.92 0 1 0-1.29 1.29l2.79 2.8a1 1 0 0 0 1.16.16 1.08 1.08 0 0 0 .41-.31l4.73-7.12a1.09 1.09 0 0 0-.17-1.53z" class="h"/>
    <rect width="40.86" height="1.86" x="32.9" y="89.22" class="g" rx=".93" ry=".93"/>
    <rect width="33.93" height="1.86" x="32.9" y="94.37" class="g" rx=".93" ry=".93"/>
    <path d="M93.44 86.66a1.09 1.09 0 0 0-1.53.17l-4.25 6.39-1.85-1.85a.92.92 0 1 0-1.29 1.29l2.79 2.8a1 1 0 0 0 1.16.16 1.08 1.08 0 0 0 .41-.31l4.73-7.12a1.09 1.09 0 0 0-.17-1.53z" class="h"/>
    <rect width="40.86" height="1.86" x="32.9" y="103.26" class="g" rx=".93" ry=".93"/>
    <rect width="33.93" height="1.86" x="32.9" y="108.42" class="g" rx=".93" ry=".93"/>
    <path d="M93.44 100.7a1.09 1.09 0 0 0-1.53.17l-4.25 6.39-1.85-1.85a.92.92 0 1 0-1.29 1.29l2.79 2.8a1 1 0 0 0 1.16.16 1.08 1.08 0 0 0 .41-.31l4.73-7.12a1.09 1.09 0 0 0-.17-1.53z" class="h"/>
    <rect width="40.86" height="1.86" x="32.9" y="117.31" class="g" rx=".93" ry=".93"/>
    <rect width="33.93" height="1.86" x="32.9" y="122.46" class="g" rx=".93" ry=".93"/>
    <path d="M93.44 114.75a1.09 1.09 0 0 0-1.53.17l-4.25 6.39-1.85-1.85a.92.92 0 1 0-1.29 1.29l2.79 2.8a1 1 0 0 0 1.16.16 1.08 1.08 0 0 0 .41-.31l4.73-7.12a1.09 1.09 0 0 0-.17-1.53z" class="h"/>
    <path d="M122.59 57.94l7.925 4.554-28.38 49.375-7.924-4.56z" class="i"/>
    <path d="M124.832 54.03l7.924 4.553-2.142 3.728-7.925-4.55z" class="j"/>
    <path d="M132.92 49.136a4.57 4.57 0 0 1 1.684 6.24l-1.386 2.41-7.924-4.555 1.39-2.414a4.57 4.57 0 0 1 6.24-1.685z" class="k"/>
    <path d="M125.3 53.235l7.925 4.555-1.12 1.95-7.925-4.555z" class="e"/>
    <path d="M94.21 107.31L92.48 118a.81.81 0 0 0 1.32.76l8.34-6.86.72-1.25-7.92-4.55z" class="j"/>
    <path d="M92.88 115.48l-.41 2.5a.81.81 0 0 0 1.32.76l1.8-1.48z" class="l"/>
    <path d="M125.185 59.7l2.463 1.414L100.1 109.04l-2.463-1.414z" class="j"/>
    <path d="M123.312 57.547l7.952 4.57-1.125 1.958-7.957-4.57z" class="e"/>
</svg>